<svg xmlns="http://www.w3.org/2000/svg" width="457.031" height="457.031" viewBox="0 0 457.031 457.031"><path d="M389.178 210.753l-71.072 71.05c-39.226 39.249-102.86 39.249-142.093 0-6.18-6.163-11.015-13.106-15.26-20.267l33.023-33.021c1.57-1.583 3.508-2.49 5.36-3.559 2.283 7.8 6.269 15.184 12.403 21.319 19.59 19.606 51.468 19.579 71.045 0l71.049-71.047c19.605-19.603 19.605-51.472 0-71.061-19.579-19.588-51.446-19.588-71.049 0L257.32 129.46c-20.503-7.983-42.593-10.13-64.096-6.978l53.838-53.837c39.25-39.242 102.868-39.242 142.116 0 39.232 39.241 39.232 102.869 0 142.108zm-187.883 116.83l-25.283 25.293c-19.588 19.577-51.467 19.577-71.058 0-19.59-19.606-19.59-51.476 0-71.072l71.058-71.05c19.604-19.602 51.461-19.602 71.05 0 6.119 6.122 10.109 13.505 12.414 21.295 1.862-1.083 3.776-1.962 5.346-3.534l33.021-33.007c-4.219-7.189-9.079-14.108-15.261-20.277-39.223-39.242-102.863-39.242-142.105 0l-71.047 71.05c-39.237 39.253-39.237 102.863 0 142.113 39.242 39.229 102.868 39.229 142.109 0l53.853-53.849c-21.516 3.169-43.611 1.005-64.097-6.962z"/></svg>