<?xml version="1.0" encoding="utf-8"?>
<!-- Generator: Adobe Illustrator 16.0.0, SVG Export Plug-In . SVG Version: 6.00 Build 0)  -->
<!DOCTYPE svg PUBLIC "-//W3C//DTD SVG 1.1//EN" "http://www.w3.org/Graphics/SVG/1.1/DTD/svg11.dtd">
<svg version="1.1" id="Layer_1" xmlns="http://www.w3.org/2000/svg" xmlns:xlink="http://www.w3.org/1999/xlink" x="0px" y="0px"
	 width="591.414px" height="583.97px" viewBox="8.752 30.979 591.414 583.97" enable-background="new 8.752 30.979 591.414 583.97"
	 xml:space="preserve">
<g>
	<path d="M440.208,104.704l-85.045,164.021l61.293-19.333c0,1.07-2.717,4.721-2.717,4.721v201.287c0,0-7.503,32.6-46.928,31.045
		c-34.859-1.381-44.566-31.045-44.566-31.045V185c0-20.019-11.1-37.055-24.311-49.169c-17.75-16.414-39.379-24.191-61.905-24.2
		c-22.544,0.009-47.751,7.787-65.492,24.2c-17.813,16.313-31.281,41.53-31.281,70.954v188.323l-57.505-18.299l85.832,164.416
		l80.844-164.416l-63.424,18.299V206.785c0-17.896,10.083-28.18,17.759-35.519c7.75-7.246,20.97-11.3,32.426-11.29
		c11.463-0.009,20.778,3.861,29.223,10.275c10.842,8.207,12.086,19.818,12.086,19.818v267.035c0,22.051,15.911,40.889,30.221,53.871
		c17.641,16.148,41.611,23.799,63.927,23.816c22.196-0.018,45.455-7.613,62.986-23.771c17.603-16.064,29.111-40.961,28.93-69.947
		c0-37.795,0.338-91.531,0.503-135.785c0.073-21.245,0.229-40.286,0.301-54.357l60.471,18.573L440.208,104.704z"/>
</g>
</svg>
