<svg xmlns="http://www.w3.org/2000/svg" width="591.414" height="583.97" viewBox="8.752 30.979 591.414 583.97"><path d="M440.208 104.704l-85.045 164.021 61.293-19.333c0 1.07-2.717 4.721-2.717 4.721V455.4s-7.503 32.6-46.928 31.045c-34.859-1.381-44.566-31.045-44.566-31.045V185c0-20.019-11.1-37.055-24.311-49.169-17.75-16.414-39.379-24.191-61.905-24.2-22.544.009-47.751 7.787-65.492 24.2-17.813 16.313-31.281 41.53-31.281 70.954v188.323l-57.505-18.299 85.832 164.416 80.844-164.416-63.424 18.299V206.785c0-17.896 10.083-28.18 17.759-35.519 7.75-7.246 20.97-11.3 32.426-11.29 11.463-.009 20.778 3.861 29.223 10.275 10.842 8.207 12.086 19.818 12.086 19.818v267.035c0 22.051 15.911 40.889 30.221 53.871 17.641 16.148 41.611 23.799 63.927 23.816 22.196-.018 45.455-7.613 62.986-23.771 17.603-16.064 29.111-40.961 28.93-69.947 0-37.795.338-91.531.503-135.785.073-21.245.229-40.286.301-54.357l60.471 18.573-83.628-164.8z"/></svg>