<svg xmlns="http://www.w3.org/2000/svg" width="250" height="250" viewBox="0 0 250 250"><path fill="#F3BA48" d="M237.666 172.701c0 9.539-6.756 21.251-15.021 26.02l-82.621 47.701c-8.262 4.771-21.78 4.771-30.042 0l-82.625-47.701c-8.263-4.769-15.021-16.479-15.021-26.02V77.298c0-9.539 6.759-21.25 15.021-26.019l82.624-47.7c8.263-4.771 21.782-4.771 30.043 0l82.621 47.701c8.266 4.768 15.021 16.479 15.021 26.019v95.402z"/><path fill="#FFF" d="M149.373 113.166c2.338 4.039.928 9.305-3.152 11.663-4.045 2.337-9.312.921-11.647-3.118-2.353-4.081-.964-9.385 3.075-11.719 4.08-2.357 9.367-.907 11.724 3.174zm26.285-7.558c-3.092 1.786-7.061.722-8.838-2.368-1.787-3.09-.728-7.059 2.363-8.845l28.223-16.294c3.098-1.782 7.061-.718 8.846 2.372a6.475 6.475 0 0 1-2.371 8.841l-28.223 16.294z"/><path fill="#FFF" d="M153.691 71.125l-83.509 48.214c-6.836 3.945-9.173 12.681-5.232 19.517l20.09 34.795c3.948 6.832 12.682 9.173 19.518 5.23l83.508-48.215c6.83-3.948 9.175-12.684 5.226-19.517l-20.09-34.793c-3.94-6.835-12.681-9.175-19.511-5.231zm-50.509 86.468c-4.826 2.783-8.649 2.323-9.995 1.96-.586-.156-.788-.24-.788-.935l-.035-4.081c.021-.655.768-.986 1.137-.952.188-.01 3.997.415 6.445-1.001 1.486-.857 2.023-2.406 1.27-3.703-.899-1.556-2.881-1.994-5.984-1.542-3.914.582-9.354.408-11.929-4.042-2.12-3.673-1.401-9.029 4.312-12.33 3.857-2.229 7.959-1.974 9.542-1.799.593 0 .907.711.907 1.057l-.244 3.951c-.021.559-.496 1.276-.977 1.211-.447.004-4.332-.472-6.592.834-1.34.773-1.821 2.241-1.249 3.242.795 1.375 2.504 1.766 6.124 1.264 3.558-.522 9.466-.914 12.375 4.133 2.21 3.818 1.129 9.583-4.319 12.733zm17.593-38.944a.813.813 0 0 1-.3 1.109L110.2 125.69l2.658 4.602 8.454-4.883c.369-.213.899-.07 1.116.3l2.329 4.038a.814.814 0 0 1-.293 1.115l-8.461 4.884 2.895 5.009 10.276-5.934a.81.81 0 0 1 1.107.297l2.338 4.046a.817.817 0 0 1-.301 1.108l-15.359 8.867a.81.81 0 0 1-1.109-.298l-14.182-24.557a.823.823 0 0 1 .301-1.113l15.359-8.866a.81.81 0 0 1 1.109.296l2.338 4.048zm28.871 12.117c-7.422 4.282-16.722 1.789-21.004-5.628-4.284-7.418-1.843-16.797 5.58-21.08 7.422-4.283 16.805-1.737 21.088 5.682 4.283 7.418 1.751 16.742-5.664 21.026zm27.168-20.927c-5.127 2.958-11.676 1.207-14.633-3.92-2.966-5.127-1.207-11.677 3.92-14.634 5.119-2.958 11.676-1.207 14.635 3.92 2.957 5.127 1.2 11.676-3.922 14.634z"/><path fill="#F3BA48" d="M198.746 80.423a3.8 3.8 0 0 1 5.189 1.388 3.791 3.791 0 0 1-1.396 5.183l-28.224 16.295a3.8 3.8 0 0 1-5.184-1.388 3.796 3.796 0 0 1 1.389-5.183l28.226-16.295m-2.678-4.638L167.846 92.08c-4.367 2.521-5.875 8.126-3.35 12.5 2.525 4.37 8.135 5.873 12.5 3.348l28.223-16.295c4.375-2.525 5.873-8.13 3.355-12.5-2.525-4.374-8.133-5.873-12.506-3.348z"/></svg>