<svg xmlns="http://www.w3.org/2000/svg" viewBox="0 0 502.596 502.596"><path d="M211.069.522H20.898C9.404.522 0 9.927 0 21.42v190.171c0 5.224 2.09 11.494 6.269 14.629l269.584 269.584c8.359 8.359 21.943 8.359 30.302 0l190.171-190.171c8.359-8.359 8.359-21.943 0-30.302L225.698 6.792c-4.18-4.18-9.404-6.27-14.629-6.27zM66.873 67.396c-7.314 8.359-19.853 8.359-27.167 0-8.359-7.314-8.359-19.853 0-27.167 7.314-7.314 19.853-7.314 28.212 0s7.315 19.853-1.045 27.167z" fill="#cdd6e0"/><path fill="#f2f2f2" d="M450.08 290.775l-159.589 159.59L59.234 219.108l159.59-159.59z"/><path d="M153.6 176.065l13.584 11.494c-3.135 5.224-5.224 9.404-4.18 13.584 0 4.18 2.09 8.359 6.269 12.539 4.18 4.18 8.359 6.269 11.494 6.269 4.18 0 7.314-1.045 9.404-3.135 1.045-1.045 2.09-3.135 2.09-5.224 0-2.09 0-4.18-2.09-7.314-1.045-2.09-3.135-6.269-7.314-12.539-5.224-8.359-8.359-15.673-8.359-20.898 0-7.314 2.09-13.584 7.314-18.808 3.135-3.135 7.314-5.225 11.494-6.269 4.18-1.045 9.404 0 14.629 1.045 5.224 2.09 9.404 5.225 14.629 10.449 8.359 8.359 12.539 15.673 12.539 22.988 1.045 7.314-2.09 14.629-7.314 19.853l-13.584-11.494c3.135-4.18 4.18-7.314 3.135-10.449 0-3.135-2.09-6.269-6.269-10.449-4.18-4.18-7.314-6.269-11.494-6.269-2.09 0-4.18 0-6.269 2.09v6.269c0 3.135 3.135 8.359 7.314 15.673 5.224 7.314 8.359 13.584 9.404 18.808 1.045 4.18 2.09 9.404 1.045 13.584s-3.135 8.359-7.314 12.539c-3.135 3.135-8.359 6.269-13.584 7.314s-10.449 1.045-15.673-1.045c-5.225-2.09-10.449-6.269-15.673-11.494-8.359-8.359-12.539-15.673-12.539-24.033-2.092-9.404 1.043-16.719 7.312-25.078zm41.796 83.592l63.739-63.739 47.02 47.02-10.449 10.449-34.482-34.482-13.584 13.584 31.347 31.347-10.449 10.449-31.347-31.347-17.763 17.763 35.527 35.527-10.449 10.449-49.11-47.02zm87.771 25.078c6.269-6.269 12.539-10.449 18.808-13.584 4.18-2.09 9.404-3.135 14.629-3.135s9.404 1.045 13.584 2.09c5.224 2.09 11.494 6.269 15.673 11.494 9.404 9.404 13.584 19.853 13.584 31.347s-5.224 21.943-15.673 32.392-20.898 15.673-32.392 15.673c-11.494 0-21.943-4.18-31.347-13.584s-13.584-19.853-13.584-31.347c1.045-10.448 6.269-21.942 16.718-31.346zm13.584 12.538c-7.314 7.314-10.449 14.629-11.494 20.898 0 7.314 2.09 13.584 7.314 17.763 5.224 5.224 11.494 7.314 17.763 7.314 7.314 0 13.584-4.18 21.943-11.494 7.314-7.314 11.494-14.629 11.494-20.898s-2.09-12.539-7.314-17.763-11.494-7.314-17.763-7.314c-7.314.001-14.629 4.18-21.943 11.494z" fill="#ff7058"/></svg>