<svg xmlns="http://www.w3.org/2000/svg" viewBox="0 0 226.99 226.99"><path d="M224.248 67.252a22.91 22.91 0 0 0-13.654-11.189 22.91 22.91 0 0 0-17.567 1.743 22.918 22.918 0 0 0-11.189 13.655 22.908 22.908 0 0 0-.376 11.895l-24.905 13.336c-7.575-10.635-19.383-18.044-32.95-19.751V55.688c9.818-2.648 17.065-11.626 17.065-22.269 0-12.718-10.347-23.065-23.065-23.065S94.541 20.701 94.541 33.42c0 10.643 7.248 19.621 17.065 22.269V76.94c-17.328 2.181-31.795 13.664-38.223 29.284L46.126 98.88a22.899 22.899 0 0 0-3.06-11.502 22.917 22.917 0 0 0-13.99-10.767C16.792 73.301 4.113 80.602.804 92.882c-1.603 5.949-.793 12.166 2.28 17.505s8.042 9.164 13.99 10.767c1.997.538 4.023.804 6.038.804 3.985 0 7.92-1.043 11.468-3.084a22.905 22.905 0 0 0 8.424-8.407l27.258 7.345a48.035 48.035 0 0 0-.459 6.543c0 11.021 3.759 21.175 10.049 29.27L59.867 173.61c-8.814-5.064-20.274-3.859-27.798 3.663-8.993 8.993-8.993 23.626 0 32.62 4.497 4.497 10.403 6.745 16.31 6.745 5.906 0 11.813-2.248 16.31-6.745 7.523-7.524 8.728-18.984 3.663-27.797l19.985-19.985c8.095 6.29 18.248 10.049 29.27 10.049s21.175-3.759 29.27-10.049l19.985 19.985c-5.064 8.814-3.86 20.274 3.663 27.797 4.497 4.497 10.403 6.745 16.31 6.745 5.907 0 11.813-2.249 16.31-6.745 8.993-8.993 8.993-23.626 0-32.62-7.523-7.523-18.984-8.727-27.797-3.663l-19.985-19.985c6.29-8.095 10.049-18.248 10.049-29.27 0-6.021-1.13-11.781-3.171-17.093l24.887-13.326a22.912 22.912 0 0 0 10.109 6.282 23.15 23.15 0 0 0 6.709.999 22.95 22.95 0 0 0 10.858-2.743c5.432-2.908 9.405-7.757 11.189-13.654s1.163-12.137-1.745-17.568zm-15.111 20.642a10.983 10.983 0 0 1-8.427.836 10.987 10.987 0 0 1-6.55-5.368 10.99 10.99 0 0 1-.836-8.428 10.987 10.987 0 0 1 5.368-6.55 11.007 11.007 0 0 1 8.427-.837 10.987 10.987 0 0 1 6.55 5.368 10.987 10.987 0 0 1 .836 8.427 10.985 10.985 0 0 1-5.368 6.552zm-55.727 36.46c0 19.742-16.062 35.804-35.804 35.804s-35.804-16.062-35.804-35.804S97.864 88.55 117.606 88.55s35.804 16.062 35.804 35.804zM106.541 33.42c0-6.102 4.964-11.065 11.065-11.065s11.065 4.964 11.065 11.065c0 6.101-4.964 11.065-11.065 11.065s-11.065-4.964-11.065-11.065zm-86.345 76.147a10.993 10.993 0 0 1-6.711-5.165 10.99 10.99 0 0 1-1.094-8.398c1.587-5.892 7.672-9.393 13.563-7.806a10.994 10.994 0 0 1 6.712 5.165 10.993 10.993 0 0 1 1.093 8.398c-1.587 5.892-7.67 9.393-13.563 7.806zm36.007 91.839c-4.313 4.314-11.334 4.314-15.649 0-4.314-4.314-4.314-11.334 0-15.649a11.031 11.031 0 0 1 7.825-3.235c2.833 0 5.667 1.079 7.824 3.235 4.314 4.315 4.314 11.335 0 15.649zm138.455-15.649c4.314 4.314 4.314 11.334 0 15.649-4.313 4.314-11.334 4.314-15.649 0-4.314-4.314-4.314-11.334 0-15.649a11.031 11.031 0 0 1 7.825-3.235 11.03 11.03 0 0 1 7.824 3.235z"/></svg>