<svg xmlns="http://www.w3.org/2000/svg" viewBox="0 0 174.248 174.248"><path d="M173.145 73.91a7.46 7.46 0 0 0-4.881-5.912l-13.727-4.881a71.305 71.305 0 0 0-2.754-6.699l6.247-13.146a7.471 7.471 0 0 0-.729-7.628 87.29 87.29 0 0 0-18.698-18.693 7.455 7.455 0 0 0-7.625-.724l-13.138 6.242a71.168 71.168 0 0 0-6.704-2.752l-4.883-13.729a7.463 7.463 0 0 0-5.9-4.876c-9.65-1.483-16.792-1.483-26.457 0a7.467 7.467 0 0 0-5.9 4.876l-4.883 13.729a70.912 70.912 0 0 0-6.702 2.752l-13.143-6.242a7.457 7.457 0 0 0-7.623.724 87.29 87.29 0 0 0-18.698 18.693 7.469 7.469 0 0 0-.729 7.628l6.247 13.146a71.512 71.512 0 0 0-2.754 6.699L5.982 68.003a7.465 7.465 0 0 0-4.879 5.907C.354 78.83.004 83.025.004 87.129c0 4.098.35 8.299 1.099 13.219a7.46 7.46 0 0 0 4.881 5.912l13.727 4.881a72.314 72.314 0 0 0 2.754 6.704l-6.247 13.141a7.465 7.465 0 0 0 .727 7.623 87.3 87.3 0 0 0 18.7 18.698 7.444 7.444 0 0 0 7.625.724l13.138-6.242a71.168 71.168 0 0 0 6.704 2.752l4.883 13.729a7.463 7.463 0 0 0 5.9 4.876c4.828.744 9.154 1.104 13.228 1.104s8.401-.36 13.228-1.104a7.464 7.464 0 0 0 5.9-4.876l4.883-13.729a71.168 71.168 0 0 0 6.704-2.752l13.138 6.242a7.453 7.453 0 0 0 7.628-.724 87.291 87.291 0 0 0 18.698-18.698 7.465 7.465 0 0 0 .727-7.623l-6.247-13.141a71.51 71.51 0 0 0 2.754-6.704l13.727-4.881a7.458 7.458 0 0 0 4.881-5.912c.749-4.92 1.099-9.12 1.099-13.219s-.349-8.3-1.098-13.219zm-14.196 19.81l-12.878 4.58a7.454 7.454 0 0 0-4.66 4.92c-1.15 3.889-2.664 7.569-4.504 10.943a7.471 7.471 0 0 0-.187 6.777l5.841 12.285a72.102 72.102 0 0 1-9.337 9.334l-12.283-5.834a7.448 7.448 0 0 0-6.775.185c-3.379 1.838-7.061 3.35-10.953 4.502a7.456 7.456 0 0 0-4.917 4.657l-4.582 12.883c-4.677.476-8.503.476-13.18 0l-4.582-12.883a7.469 7.469 0 0 0-4.917-4.657c-3.894-1.152-7.579-2.664-10.953-4.502a7.424 7.424 0 0 0-6.775-.185l-12.283 5.839a72.647 72.647 0 0 1-9.337-9.339l5.841-12.285a7.47 7.47 0 0 0-.187-6.777c-1.835-3.364-3.35-7.049-4.504-10.948a7.462 7.462 0 0 0-4.66-4.915l-12.878-4.58c-.243-2.343-.36-4.502-.36-6.592s.117-4.244.36-6.587l12.881-4.584a7.46 7.46 0 0 0 4.657-4.915c1.152-3.889 2.667-7.574 4.504-10.953a7.46 7.46 0 0 0 .187-6.772l-5.841-12.285a72.583 72.583 0 0 1 9.337-9.339l12.288 5.839c2.151 1.036 4.677.953 6.775-.185 3.372-1.838 7.054-3.35 10.948-4.502a7.467 7.467 0 0 0 4.917-4.657l4.582-12.883c4.633-.481 8.466-.481 13.18 0l4.582 12.883a7.469 7.469 0 0 0 4.917 4.657c3.894 1.152 7.579 2.664 10.953 4.502a7.424 7.424 0 0 0 6.775.185l12.283-5.839a72.583 72.583 0 0 1 9.337 9.339l-5.841 12.285a7.46 7.46 0 0 0 .187 6.772c1.843 3.389 3.357 7.069 4.504 10.948a7.454 7.454 0 0 0 4.66 4.92l12.878 4.58c.243 2.343.36 4.502.36 6.592s-.117 4.248-.36 6.591z"/><path d="M87.124 50.802c-19.062 0-34.571 15.508-34.571 34.571s15.508 34.571 34.571 34.571 34.571-15.508 34.571-34.571-15.509-34.571-34.571-34.571zm0 54.207c-10.827 0-19.636-8.809-19.636-19.636s8.809-19.636 19.636-19.636 19.636 8.809 19.636 19.636-8.809 19.636-19.636 19.636z"/></svg>