<?xml version="1.0" encoding="utf-8"?>
<!-- Generator: Adobe Illustrator 16.0.0, SVG Export Plug-In . SVG Version: 6.00 Build 0)  -->
<!DOCTYPE svg PUBLIC "-//W3C//DTD SVG 1.1//EN" "http://www.w3.org/Graphics/SVG/1.1/DTD/svg11.dtd">
<svg version="1.1" id="Capa_1" xmlns="http://www.w3.org/2000/svg" xmlns:xlink="http://www.w3.org/1999/xlink" x="0px" y="0px"
	 width="457.031px" height="457.031px" viewBox="0 0 457.031 457.031" enable-background="new 0 0 457.031 457.031"
	 xml:space="preserve">
<g>
	<path d="M389.178,210.753l-71.072,71.05c-39.226,39.249-102.86,39.249-142.093,0c-6.18-6.163-11.015-13.106-15.26-20.267
		l33.023-33.021c1.57-1.583,3.508-2.49,5.36-3.559c2.283,7.8,6.269,15.184,12.403,21.319c19.59,19.606,51.468,19.579,71.045,0
		l71.049-71.047c19.605-19.603,19.605-51.472,0-71.061c-19.579-19.588-51.446-19.588-71.049,0L257.32,129.46
		c-20.503-7.983-42.593-10.13-64.096-6.978l53.838-53.837c39.25-39.242,102.868-39.242,142.116,0
		C428.41,107.886,428.41,171.514,389.178,210.753z M201.295,327.583l-25.283,25.293c-19.588,19.577-51.467,19.577-71.058,0
		c-19.59-19.606-19.59-51.476,0-71.072l71.058-71.05c19.604-19.602,51.461-19.602,71.05,0c6.119,6.122,10.109,13.505,12.414,21.295
		c1.862-1.083,3.776-1.962,5.346-3.534l33.021-33.007c-4.219-7.189-9.079-14.108-15.261-20.277
		c-39.223-39.242-102.863-39.242-142.105,0L69.43,246.281c-39.237,39.253-39.237,102.863,0,142.113
		c39.242,39.229,102.868,39.229,142.109,0l53.853-53.849C243.876,337.714,221.781,335.55,201.295,327.583z"/>
</g>
</svg>
