<?xml version="1.0" encoding="iso-8859-1"?>
<!-- Generator: Adobe Illustrator 19.0.0, SVG Export Plug-In . SVG Version: 6.00 Build 0)  -->
<svg version="1.1" id="Layer_1" xmlns="http://www.w3.org/2000/svg" xmlns:xlink="http://www.w3.org/1999/xlink" x="0px" y="0px"
	 viewBox="0 0 502.596 502.596" style="enable-background:new 0 0 502.596 502.596;" xml:space="preserve">
<path style="fill:#CDD6E0;" d="M211.069,0.522H20.898C9.404,0.522,0,9.927,0,21.42v190.171c0,5.224,2.09,11.494,6.269,14.629
	l269.584,269.584c8.359,8.359,21.943,8.359,30.302,0l190.171-190.171c8.359-8.359,8.359-21.943,0-30.302L225.698,6.792
	C221.518,2.612,216.294,0.522,211.069,0.522z M66.873,67.396c-7.314,8.359-19.853,8.359-27.167,0
	c-8.359-7.314-8.359-19.853,0-27.167c7.314-7.314,19.853-7.314,28.212,0S75.233,60.082,66.873,67.396z"/>
<rect x="141.807" y="91.416" transform="matrix(-0.7071 0.7071 -0.7071 -0.7071 614.9927 255.1435)" style="fill:#F2F2F2;" width="225.696" height="327.05"/>
<g>
	<path style="fill:#FF7058;" d="M153.6,176.065l13.584,11.494c-3.135,5.224-5.224,9.404-4.18,13.584c0,4.18,2.09,8.359,6.269,12.539
		c4.18,4.18,8.359,6.269,11.494,6.269c4.18,0,7.314-1.045,9.404-3.135c1.045-1.045,2.09-3.135,2.09-5.224c0-2.09,0-4.18-2.09-7.314
		c-1.045-2.09-3.135-6.269-7.314-12.539c-5.224-8.359-8.359-15.673-8.359-20.898c0-7.314,2.09-13.584,7.314-18.808
		c3.135-3.135,7.314-5.225,11.494-6.269c4.18-1.045,9.404,0,14.629,1.045c5.224,2.09,9.404,5.225,14.629,10.449
		c8.359,8.359,12.539,15.673,12.539,22.988c1.045,7.314-2.09,14.629-7.314,19.853l-13.584-11.494
		c3.135-4.18,4.18-7.314,3.135-10.449c0-3.135-2.09-6.269-6.269-10.449c-4.18-4.18-7.314-6.269-11.494-6.269
		c-2.09,0-4.18,0-6.269,2.09c0,2.09,0,3.135,0,6.269c0,3.135,3.135,8.359,7.314,15.673c5.224,7.314,8.359,13.584,9.404,18.808
		c1.045,4.18,2.09,9.404,1.045,13.584c-1.045,4.18-3.135,8.359-7.314,12.539c-3.135,3.135-8.359,6.269-13.584,7.314
		s-10.449,1.045-15.673-1.045c-5.225-2.09-10.449-6.269-15.673-11.494c-8.359-8.359-12.539-15.673-12.539-24.033
		C144.196,191.739,147.331,184.424,153.6,176.065z"/>
	<path style="fill:#FF7058;" d="M195.396,259.657l63.739-63.739l47.02,47.02l-10.449,10.449l-34.482-34.482l-13.584,13.584
		l31.347,31.347l-10.449,10.449l-31.347-31.347l-17.763,17.763l35.527,35.527l-10.449,10.449L195.396,259.657z"/>
	<path style="fill:#FF7058;" d="M283.167,284.735c6.269-6.269,12.539-10.449,18.808-13.584c4.18-2.09,9.404-3.135,14.629-3.135
		s9.404,1.045,13.584,2.09c5.224,2.09,11.494,6.269,15.673,11.494c9.404,9.404,13.584,19.853,13.584,31.347
		c0,11.494-5.224,21.943-15.673,32.392s-20.898,15.673-32.392,15.673c-11.494,0-21.943-4.18-31.347-13.584
		c-9.404-9.404-13.584-19.853-13.584-31.347C267.494,305.633,272.718,294.139,283.167,284.735z M296.751,297.273
		c-7.314,7.314-10.449,14.629-11.494,20.898c0,7.314,2.09,13.584,7.314,17.763c5.224,5.224,11.494,7.314,17.763,7.314
		c7.314,0,13.584-4.18,21.943-11.494c7.314-7.314,11.494-14.629,11.494-20.898c0-6.269-2.09-12.539-7.314-17.763
		s-11.494-7.314-17.763-7.314C311.38,285.78,304.065,289.959,296.751,297.273z"/>
</g>
<g>
</g>
<g>
</g>
<g>
</g>
<g>
</g>
<g>
</g>
<g>
</g>
<g>
</g>
<g>
</g>
<g>
</g>
<g>
</g>
<g>
</g>
<g>
</g>
<g>
</g>
<g>
</g>
<g>
</g>
</svg>
