<svg fill="none" height="24" viewBox="0 0 83 24" width="83" xmlns="http://www.w3.org/2000/svg"><path d="m71 16 11.99-13h-25.1c-.48.018-.866.4-.89.882v2.736c-2.303-3.922-7.03-6.618-12.5-6.618-6.464 0-11.89 3.76-13.5 8.863v-5.863h-4.38c-1.043.015-1.957.478-2.62 1.177l-8.498 9.325-8.502-9.325c-.66-.7-1.573-1.162-2.617-1.177h-4.383v19h5.117c.492-.024.863-.42.883-.91v-9.09l9.5 10.5 9.5-10.5v9.09c.017.49.415.886.905.91h5.095v-6.863c1.61 5.103 7.036 8.863 13.5 8.863 7.732 0 14-5.373 14-12 0-1.038-.17-2.04-.46-3h10.96l-12 13h25.104c.48-.018.872-.403.896-.884v-5.116zm-26.452 1.96c-3.764 0-6.818-2.668-6.818-5.96 0-3.293 3.053-5.96 6.818-5.96 3.768 0 6.822 2.668 6.822 5.96s-3.053 5.96-6.822 5.96z" fill="#6cbbe6"/></svg>