<svg xmlns="http://www.w3.org/2000/svg" xmlns:xlink="http://www.w3.org/1999/xlink" version="1.1" x="0px" y="0px" viewBox="0 0 1024 1280" style="enable-background:new 0 0 1024 1024;" xml:space="preserve"><g><g><g><path d="M834.5,230.9c0,6.2,0,12.4,0,18.6c0,16.8,0,33.6,0,50.4c0,24.9,0,49.9,0,74.8c0,30.4,0,60.8,0,91.2     c0,33.1,0,66.2,0,99.3c0,33.5,0,67,0,100.5c0,31,0,62,0,93c0,26.2,0,52.4,0,78.6c0,18.6,0,37.3,0,55.9c0,8.5,0,16.9,0,25.4     c0,2.6-0.2,5.1-0.5,7.7c0.4-3.3,0.9-6.6,1.3-10c-0.6,4-1.7,7.9-3.1,11.6c1.3-3,2.5-6,3.8-9c-1.7,4.1-3.9,7.8-6.5,11.3     c2-2.5,3.9-5.1,5.9-7.6c-2.7,3.4-5.7,6.5-9.2,9.2c2.5-2,5.1-3.9,7.6-5.9c-3.5,2.6-7.3,4.8-11.3,6.5c3-1.3,6-2.5,9-3.8     c-3.8,1.5-7.6,2.5-11.6,3.1c3.3-0.4,6.6-0.9,10-1.3c-7.3,0.9-14.8,0.5-22.1,0.5c-14.9,0-29.8,0-44.7,0c-49.7,0-99.5,0-149.2,0     c-60.5,0-120.9,0-181.4,0c-52.1,0-104.2,0-156.4,0c-24.7,0-49.4,0.1-74.1,0c-2.5,0-5.1-0.2-7.6-0.5c3.3,0.4,6.6,0.9,10,1.3     c-4-0.6-7.9-1.7-11.6-3.1c3,1.3,6,2.5,9,3.8c-4.1-1.7-7.8-3.9-11.3-6.5c2.5,2,5.1,3.9,7.6,5.9c-3.4-2.7-6.5-5.7-9.2-9.2     c2,2.5,3.9,5.1,5.9,7.6c-2.6-3.5-4.8-7.3-6.5-11.3c1.3,3,2.5,6,3.8,9c-1.5-3.8-2.5-7.6-3.1-11.6c0.4,3.3,0.9,6.6,1.3,10     c-1-7.9-0.5-16.1-0.5-24c0-16.5,0-32.9,0-49.4c0-24.8,0-49.6,0-74.4c0-30.3,0-60.5,0-90.8c0-33.4,0-66.7,0-100.1     c0-33.7,0-67.4,0-101.1c0-31.2,0-62.4,0-93.7c0-26.4,0-52.8,0-79.3c0-18.8,0-37.6,0-56.4c0-8.5,0-17,0-25.6     c0-2.6,0.2-5.1,0.5-7.7c-0.4,3.3-0.9,6.6-1.3,10c0.6-4,1.7-7.9,3.1-11.6c-1.3,3-2.5,6-3.8,9c1.7-4.1,3.9-7.8,6.5-11.3     c-2,2.5-3.9,5.1-5.9,7.6c2.7-3.4,5.7-6.5,9.2-9.2c-2.5,2-5.1,3.9-7.6,5.9c3.5-2.6,7.3-4.8,11.3-6.5c-3,1.3-6,2.5-9,3.8     c3.8-1.5,7.6-2.5,11.6-3.1c-3.3,0.4-6.6,0.9-10,1.3c5.4-0.7,10.9-0.5,16.4-0.5c9.4,0,18.7,0,28.1,0c22,0,44,0,66,0     c5.2,0,10.4,0,15.5,0c-12.5-12.5-25-25-37.5-37.5c0,8,0,15.9,0,23.9c0,11-1,22.9,2,33.7c6,21.9,26.8,35.5,48.8,35.8     c2.8,0,5.6,0,8.4,0c31.5,0,63,0,94.5,0c45.2,0,90.4,0,135.6,0c34.5,0,69,0,103.5,0c5.4,0,10.9,0.2,16.3,0     c22-0.7,41.8-14.8,47.8-36.4c1.6-6,1.8-12.1,1.8-18.2c0-10.5,0-21,0-31.5c0-2.4,0-4.8,0-7.2c-12.5,12.5-25,25-37.5,37.5     c35.6,0,71.3,0,106.9,0c6.3,0,12.8-0.3,19.1,0.5c-3.3-0.4-6.6-0.9-10-1.3c4,0.6,7.9,1.7,11.6,3.1c-3-1.3-6-2.5-9-3.8     c4.1,1.7,7.8,3.9,11.3,6.5c-2.5-2-5.1-3.9-7.6-5.9c3.4,2.7,6.5,5.7,9.2,9.2c-2-2.5-3.9-5.1-5.9-7.6c2.6,3.5,4.8,7.3,6.5,11.3     c-1.3-3-2.5-6-3.8-9c1.5,3.8,2.5,7.6,3.1,11.6c-0.4-3.3-0.9-6.6-1.3-10C834.3,226.3,834.4,228.6,834.5,230.9     c0.3,19.6,17.1,38.4,37.5,37.5c20.1-0.9,37.8-16.5,37.5-37.5c-0.5-32.3-19-64.7-49.2-77.9c-12.4-5.4-24.2-8.6-38-8.7     c-3,0-6,0-8.9,0c-28.2,0-56.3,0-84.5,0c-8.4,0-16.8,0-25.1,0c-20.3,0-37.5,17.2-37.5,37.5c0,15,0.7,30.1-0.1,45.1     c0.4-3.3,0.9-6.6,1.3-10c-0.2,1.3-0.5,2.4-1,3.7c1.3-3,2.5-6,3.8-9c-0.3,0.8-0.8,1.5-1.3,2.1c2-2.5,3.9-5.1,5.9-7.6     c-0.8,1-1.6,1.8-2.6,2.6c2.5-2,5.1-3.9,7.6-5.9c-0.7,0.5-1.4,0.9-2.1,1.3c3-1.3,6-2.5,9-3.8c-1.2,0.5-2.3,0.8-3.7,1     c3.3-0.4,6.6-0.9,10-1.3c-12.2,0.7-24.6,0.1-36.8,0.1c-28.6,0-57.2,0-85.8,0c-34.8,0-69.6,0-104.4,0c-29.9,0-59.8,0-89.8,0     c-14.5,0-29-0.2-43.5,0c-0.6,0-1.2,0-1.8-0.1c3.3,0.4,6.6,0.9,10,1.3c-1.3-0.2-2.4-0.5-3.7-1c3,1.3,6,2.5,9,3.8     c-0.8-0.3-1.5-0.8-2.1-1.3c2.5,2,5.1,3.9,7.6,5.9c-1-0.8-1.8-1.6-2.6-2.6c2,2.5,3.9,5.1,5.9,7.6c-0.5-0.7-0.9-1.4-1.3-2.1     c1.3,3,2.5,6,3.8,9c-0.5-1.2-0.8-2.3-1-3.7c0.4,3.3,0.9,6.6,1.3,10c-0.8-15-0.1-30.1-0.1-45.1c0-20.3-17.2-37.5-37.5-37.5     c-39,0-78,0-117,0c-6.4,0-12.6,0.8-18.9,1.8c-14.9,2.4-27.9,10-39.5,19.3c-19.5,15.6-30,41-30.3,65.6c-0.1,4.5,0,9,0,13.5     c0,29.6,0,59.1,0,88.7c0,47.3,0,94.6,0,141.9c0,54.4,0,108.9,0,163.3c0,49.9,0,99.7,0,149.6c0,34.7,0,69.4,0,104.1     c0,8,0,16,0,24.1c0,1.1,0,2.2,0,3.3c0.4,30.1,15.4,56.1,40,73c24.8,17,56.5,13.7,85,13.7c39.3,0,78.7,0,118,0     c52.7,0,105.3,0,158,0c52.4,0,104.8,0,157.2,0c38.5,0,76.9,0,115.4,0c9.7,0,19.5,0,29.2,0c1.8,0,3.5,0,5.3,0     c22.6-0.2,43.6-8.7,60.1-24c18.8-17.4,26.8-42.2,26.8-67.1c0-8.6,0-17.3,0-25.9c0-35.5,0-70.9,0-106.4c0-50.4,0-100.8,0-151.2     c0-54.2,0-108.4,0-162.7c0-46.9,0-93.8,0-140.7c0-28.5,0-57,0-85.5c0-3.9,0-7.7,0-11.6c0-19.6-17.2-38.4-37.5-37.5     C851.7,194.4,834.5,209.9,834.5,230.9z"/></g></g><g><g><path d="M666.3,137.2c0,26,0,52,0,78c0,3.9,0.1,7.8-0.1,11.7c0.4-3.3,0.9-6.6,1.3-10c-0.2,1.3-0.5,2.4-1,3.7     c1.3-3,2.5-6,3.8-9c-0.3,0.8-0.8,1.5-1.3,2.1c2-2.5,3.9-5.1,5.9-7.6c-0.8,1-1.6,1.8-2.6,2.6c2.5-2,5.1-3.9,7.6-5.9     c-0.7,0.5-1.4,0.9-2.1,1.3c3-1.3,6-2.5,9-3.8c-1.2,0.5-2.3,0.8-3.7,1c3.3-0.4,6.6-0.9,10-1.3c-12.2,0.7-24.6,0.1-36.8,0.1     c-28.6,0-57.2,0-85.8,0c-34.8,0-69.6,0-104.4,0c-29.9,0-59.8,0-89.8,0c-14.5,0-29-0.2-43.5,0c-0.6,0-1.2,0-1.8-0.1     c3.3,0.4,6.6,0.9,10,1.3c-1.3-0.2-2.4-0.5-3.7-1c3,1.3,6,2.5,9,3.8c-0.8-0.3-1.5-0.8-2.1-1.3c2.5,2,5.1,3.9,7.6,5.9     c-1-0.8-1.8-1.6-2.6-2.6c2,2.5,3.9,5.1,5.9,7.6c-0.5-0.7-0.9-1.4-1.3-2.1c1.3,3,2.5,6,3.8,9c-0.5-1.2-0.8-2.3-1-3.7     c0.4,3.3,0.9,6.6,1.3,10c-0.6-10.2-0.1-20.6-0.1-30.8c0-16,0-32.1,0-48.1c0-4-0.1-8.1,0.1-12.1c-0.4,3.3-0.9,6.6-1.3,10     c0.2-1.3,0.5-2.4,1-3.7c-1.3,3-2.5,6-3.8,9c0.3-0.8,0.8-1.5,1.3-2.1c-2,2.5-3.9,5.1-5.9,7.6c0.8-1,1.6-1.8,2.6-2.6     c-2.5,2-5.1,3.9-7.6,5.9c0.7-0.5,1.4-0.9,2.1-1.3c-3,1.3-6,2.5-9,3.8c1.2-0.5,2.3-0.8,3.7-1c-3.3,0.4-6.6,0.9-10,1.3     c11.7-0.6,23.6-0.1,35.3-0.1c18.5,0,37,0,55.5,0c4.3,0,8.5,0,12.8,0c9.2,0,20.2-4.1,26.5-11c2-2.5,3.9-5.1,5.9-7.6     c3.4-5.8,5.1-12.2,5.1-18.9c0.1-0.9,0.2-1.8,0.3-2.7c-0.4,3.3-0.9,6.6-1.3,10c1-6.7,2.8-13.2,5.4-19.5c-1.3,3-2.5,6-3.8,9     c2.7-6.1,6-11.8,10-17.1c-2,2.5-3.9,5.1-5.9,7.6c4.1-5.2,8.7-9.8,13.9-13.9c-2.5,2-5.1,3.9-7.6,5.9c5.3-4,11-7.4,17.1-10.1     c-3,1.3-6,2.5-9,3.8c6.3-2.6,12.8-4.4,19.5-5.5c-3.3,0.4-6.6,0.9-10,1.3c7.4-1,14.9-1,22.3,0c-3.3-0.4-6.6-0.9-10-1.3     c6.7,1,13.2,2.8,19.5,5.5c-3-1.3-6-2.5-9-3.8c6.1,2.7,11.8,6,17.1,10.1c-2.5-2-5.1-3.9-7.6-5.9c5.2,4.1,9.8,8.7,13.9,13.9     c-2-2.5-3.9-5.1-5.9-7.6c4,5.3,7.4,11,10,17.1c-1.3-3-2.5-6-3.8-9c2.6,6.3,4.4,12.8,5.4,19.5c-0.4-3.3-0.9-6.6-1.3-10     c0.1,0.9,0.2,1.8,0.3,2.7c1.1,9.8,3.3,19.5,11,26.5c7.3,6.7,16.4,11,26.5,11c30.1,0,60.1,0,90.2,0c4.4,0,8.9-0.2,13.4,0.1     c-3.3-0.4-6.6-0.9-10-1.3c1.3,0.2,2.4,0.5,3.7,1c-3-1.3-6-2.5-9-3.8c0.8,0.3,1.5,0.8,2.1,1.3c-2.5-2-5.1-3.9-7.6-5.9     c1,0.8,1.8,1.6,2.6,2.6c-2-2.5-3.9-5.1-5.9-7.6c0.5,0.7,0.9,1.4,1.3,2.1c-1.3-3-2.5-6-3.8-9c0.5,1.2,0.8,2.3,1,3.7     c-0.4-3.3-0.9-6.6-1.3-10C666.2,136.3,666.2,136.7,666.3,137.2c0.5,9.9,3.8,19.3,11,26.5c6.5,6.5,17.2,11.4,26.5,11     c19.4-0.9,38.6-16.5,37.5-37.5c-1.2-21.5-14.1-41.7-35.8-47.6c-5.1-1.4-10.5-2-15.8-2c-6.9,0-13.8,0-20.7,0     c-21.2,0-42.3,0-63.5,0c-5.3,0-10.7,0-16,0c12.5,12.5,25,25,37.5,37.5c-1.3-11.2-2.8-21.8-7.1-32.3c-5.3-13-11.2-23.2-20.1-34.2     c-13.4-16.6-32.1-28.1-52.1-35.1c-41-14.3-90.4-1.3-119.6,30.6c-7.8,8.5-14.8,18-19.6,28.5c-6.5,14.2-9.6,26.9-11.4,42.4     c12.5-12.5,25-25,37.5-37.5c-24.5,0-48.9,0-73.4,0c-9.6,0-19.1-0.2-28.7,0c-27.4,0.6-49.1,22.1-49.7,49.5c-0.1,2.7,0,5.5,0,8.2     c0,26.4-0.4,52.9,0,79.3c0.5,28.7,22.6,50.2,51.1,50.5c5.1,0,10.3,0,15.4,0c54.2,0,108.5,0,162.7,0c54.4,0,108.8,0,163.2,0     c5,0,10.1,0.1,15.1,0c28.6-0.3,50.6-22,51-50.7c0.4-26.5,0-53.1,0-79.6c0-2.5,0-5.1,0-7.6c0-19.6-17.2-38.4-37.5-37.5     C683.4,100.6,666.3,116.1,666.3,137.2z"/></g></g><g><g><path d="M738.8,375.8c-15,0-30.1,0-45.1,0c-36.1,0-72.3,0-108.4,0c-43.7,0-87.4,0-131.1,0c-37.8,0-75.5,0-113.3,0     c-18.3,0-36.6-0.3-54.9,0c-0.3,0-0.5,0-0.8,0c-19.6,0-38.4,17.2-37.5,37.5c0.9,20.3,16.5,37.5,37.5,37.5c15,0,30.1,0,45.1,0     c36.1,0,72.3,0,108.4,0c43.7,0,87.4,0,131.1,0c37.8,0,75.5,0,113.3,0c18.3,0,36.6,0.3,54.9,0c0.3,0,0.5,0,0.8,0     c19.6,0,38.4-17.2,37.5-37.5C775.4,393,759.8,375.8,738.8,375.8L738.8,375.8z"/></g></g><g><g><path d="M738.8,531.4c-15,0-30.1,0-45.1,0c-36.1,0-72.3,0-108.4,0c-43.7,0-87.4,0-131.1,0c-37.8,0-75.5,0-113.3,0     c-18.3,0-36.6-0.3-54.9,0c-0.3,0-0.5,0-0.8,0c-19.6,0-38.4,17.2-37.5,37.5c0.9,20.3,16.5,37.5,37.5,37.5c15,0,30.1,0,45.1,0     c36.1,0,72.3,0,108.4,0c43.7,0,87.4,0,131.1,0c37.8,0,75.5,0,113.3,0c18.3,0,36.6,0.3,54.9,0c0.3,0,0.5,0,0.8,0     c19.6,0,38.4-17.2,37.5-37.5C775.4,548.5,759.8,531.4,738.8,531.4L738.8,531.4z"/></g></g><g><g><path d="M566.1,686.9c-31.7,0-63.5,0-95.2,0c-50.2,0-100.5,0-150.7,0c-11.6,0-23.3,0-34.9,0     c-19.6,0-38.4,17.2-37.5,37.5c0.9,20.3,16.5,37.5,37.5,37.5c31.7,0,63.5,0,95.2,0c50.2,0,100.5,0,150.7,0c11.6,0,23.3,0,34.9,0     c19.6,0,38.4-17.2,37.5-37.5C602.7,704.1,587.1,686.9,566.1,686.9L566.1,686.9z"/></g></g></g><text x="0" y="1039" fill="#000000" font-size="5px" font-weight="bold" font-family="'Helvetica Neue', Helvetica, Arial-Unicode, Arial, Sans-serif">Created by shashank singh</text><text x="0" y="1044" fill="#000000" font-size="5px" font-weight="bold" font-family="'Helvetica Neue', Helvetica, Arial-Unicode, Arial, Sans-serif">from the Noun Project</text></svg>