<?xml version="1.0" encoding="utf-8"?>
<!-- Generator: Adobe Illustrator 16.0.4, SVG Export Plug-In . SVG Version: 6.00 Build 0)  -->
<!DOCTYPE svg PUBLIC "-//W3C//DTD SVG 1.1//EN" "http://www.w3.org/Graphics/SVG/1.1/DTD/svg11.dtd">
<svg version="1.1" id="gr_x5F_icon10_x5F_seoMatic" xmlns="http://www.w3.org/2000/svg" xmlns:xlink="http://www.w3.org/1999/xlink"
	 x="0px" y="0px" width="250px" height="250px" viewBox="0 0 250 250" enable-background="new 0 0 250 250" xml:space="preserve">
<g id="gr_x5F_big_10_">
	<g>
		<path fill="#FFFFFF" d="M147.072,104.836c3.982,6.882,1.58,15.852-5.37,19.867c-6.891,3.981-15.862,1.568-19.838-5.311
			c-4.01-6.952-1.645-15.986,5.235-19.962C134.05,95.415,143.057,97.884,147.072,104.836z"/>
		<path fill="#FFFFFF" d="M191.847,91.961c-5.265,3.042-12.026,1.23-15.054-4.033c-3.044-5.265-1.242-12.025,4.025-15.067
			l48.077-27.756c5.276-3.036,12.027-1.223,15.067,4.041c3.041,5.264,1.234,12.019-4.038,15.06L191.847,91.961z"/>
		<path fill="#FFFFFF" d="M154.428,33.221L12.173,115.352c-11.645,6.72-15.626,21.6-8.912,33.246l34.222,59.272
			c6.726,11.637,21.604,15.628,33.249,8.909l142.253-82.132c11.636-6.727,15.63-21.607,8.901-33.247l-34.222-59.268
			C180.951,30.489,166.063,26.503,154.428,33.221z M68.388,180.516c-8.221,4.742-14.733,3.957-17.027,3.339
			c-0.998-0.267-1.342-0.409-1.342-1.592l-0.06-6.952c0.036-1.116,1.309-1.68,1.938-1.622c0.32-0.018,6.809,0.708,10.978-1.705
			c2.533-1.461,3.446-4.1,2.164-6.308c-1.531-2.65-4.908-3.397-10.193-2.627c-6.667,0.991-15.934,0.695-20.32-6.885
			c-3.612-6.257-2.388-15.382,7.344-21.005c6.571-3.796,13.559-3.362,16.255-3.063c1.009,0,1.544,1.211,1.544,1.8l-0.416,6.731
			c-0.036,0.95-0.845,2.173-1.664,2.062c-0.762,0.007-7.38-0.803-11.229,1.421c-2.282,1.317-3.102,3.818-2.127,5.522
			c1.354,2.344,4.265,3.007,10.431,2.153c6.062-0.888,16.125-1.557,21.081,7.04C79.51,165.329,77.668,175.15,68.388,180.516z
			 M98.356,114.177c0.368,0.629,0.177,1.49-0.511,1.889l-17.503,10.104l4.528,7.843l14.401-8.318
			c0.629-0.363,1.532-0.12,1.902,0.511l3.967,6.88c0.404,0.701,0.131,1.533-0.499,1.896l-14.413,8.322l4.931,8.531l17.505-10.11
			c0.689-0.398,1.521-0.119,1.887,0.51l3.983,6.892c0.355,0.631,0.175,1.492-0.513,1.885l-26.165,15.104
			c-0.689,0.403-1.532,0.124-1.889-0.506l-24.158-41.832c-0.355-0.631-0.177-1.498,0.512-1.896l26.164-15.102
			c0.688-0.404,1.533-0.125,1.889,0.504L98.356,114.177z M147.538,134.815c-12.644,7.296-28.488,3.049-35.779-9.582
			c-7.3-12.638-3.143-28.615,9.505-35.91c12.643-7.296,28.626-2.959,35.922,9.68C164.481,111.636,160.168,127.521,147.538,134.815z
			 M193.817,99.169c-8.733,5.039-19.89,2.056-24.927-6.678c-5.056-8.733-2.056-19.891,6.677-24.928
			c8.721-5.039,19.891-2.056,24.931,6.677C205.535,82.974,202.542,94.13,193.817,99.169z"/>
		<path fill="#FFFFFF" d="M231.177,49.06c3.103-1.788,7.048-0.724,8.84,2.365c1.784,3.088,0.727,7.045-2.378,8.829l-48.08,27.758
			c-3.087,1.781-7.033,0.723-8.831-2.365c-1.78-3.088-0.727-7.047,2.366-8.83L231.177,49.06 M226.616,41.16L178.54,68.917
			c-7.439,4.294-10.008,13.842-5.705,21.293c4.3,7.444,13.855,10.004,21.292,5.704l48.076-27.759
			c7.452-4.301,10.005-13.849,5.716-21.293C243.616,39.411,234.065,36.857,226.616,41.16L226.616,41.16z"/>
	</g>
</g>
</svg>
