<?xml version="1.0" encoding="iso-8859-1"?>
<!-- Generator: Adobe Illustrator 19.0.0, SVG Export Plug-In . SVG Version: 6.00 Build 0)  -->
<svg version="1.1" id="Layer_1" xmlns="http://www.w3.org/2000/svg" xmlns:xlink="http://www.w3.org/1999/xlink" x="0px" y="0px"
	 viewBox="0 0 508 508" style="enable-background:new 0 0 508 508;" xml:space="preserve">
<circle style="fill:#324A5E;" cx="254" cy="254" r="254"/>
<path style="fill:#2B3B4E;" d="M45.6,399.2C91.6,464.8,167.6,508,254,508s162.4-43.2,208.4-108.8H45.6z"/>
<g>
	<rect x="340.4" y="134.4" style="fill:#FFFFFF;" width="48" height="227.6"/>
	<rect x="266.8" y="186.8" style="fill:#FFFFFF;" width="48" height="175.2"/>
	<rect x="193.2" y="228.8" style="fill:#FFFFFF;" width="48" height="133.2"/>
	<rect x="119.6" y="262.8" style="fill:#FFFFFF;" width="48" height="99.2"/>
</g>
<path style="fill:#E6E9EE;" d="M107.2,362h293.6c4.4,0,7.6,3.6,7.6,7.6v22c0,4.4-3.6,7.6-7.6,7.6H107.2c-4.4,0-7.6-3.6-7.6-7.6v-22
	C99.6,365.2,102.8,362,107.2,362z"/>
<polygon style="fill:#FF7058;" points="273.2,82.8 264.4,66.8 358.8,66.8 307.6,142.8 298.8,127.2 99.6,214.4 "/>
<g>
</g>
<g>
</g>
<g>
</g>
<g>
</g>
<g>
</g>
<g>
</g>
<g>
</g>
<g>
</g>
<g>
</g>
<g>
</g>
<g>
</g>
<g>
</g>
<g>
</g>
<g>
</g>
<g>
</g>
</svg>
